# xmcd
#
# Track frame offsets:
#	150
#	18339
#	34925
#	54174
#	70982
#	88167
#	105244
#	124379
#	139427
#	154503
#	167478
#	180447
#	198427
#	213886
#
# Disc length: 3066 seconds
#
# Revision: 1
# Processed by: cddbd v1.5.2PL0 Copyright (c) Steve Scherf et al.
# Submitted via: audiograbber 1.83.01
#
DISCID=b80bf80e
DTITLE=Sweeney Killeen - Along For The Ride
DYEAR=2007
DGENRE=Australian Country
TTITLE0=One Of Those Days
TTITLE1=Running
TTITLE2=Big Smoke
TTITLE3=Mama Was A Working Man
TTITLE4=The River Rose
TTITLE5=Almost Maybe
TTITLE6=Sonnys Dreams
TTITLE7=Restricted Area
TTITLE8=This Old Town
TTITLE9=Can't Do A Thing Without You
TTITLE10=Here I Go Again
TTITLE11=Across The Great Divide
TTITLE12=Those Words We Said
TTITLE13=Along For The Ride
EXTD=
EXTT0=
EXTT1=
EXTT2=
EXTT3=
EXTT4=
EXTT5=
EXTT6=
EXTT7=
EXTT8=
EXTT9=
EXTT10=
EXTT11=
EXTT12=
EXTT13=
PLAYORDER=
